<?xml version="1.0" encoding="UTF-8" standalone="no"?>
<!-- Created with Inkscape (http://www.inkscape.org/) -->

<svg
   width="8.453311mm"
   height="9.0095558mm"
   viewBox="0 0 8.453311 9.0095558"
   version="1.1"
   id="svg1"
   xml:space="preserve"
   xmlns="http://www.w3.org/2000/svg"
   xmlns:svg="http://www.w3.org/2000/svg"><defs
     id="defs1" /><g
     id="layer1"
     style="display:inline;opacity:1"
     transform="translate(-114.06121,-33.536572)"><path
       id="path4"
       style="display:inline;opacity:1;fill:#7456da;fill-opacity:1;fill-rule:nonzero;stroke-width:0.2644"
       d="m 118.30998,33.536572 c -1.41593,0.706476 -2.83185,1.412952 -4.24778,2.119428 -3.3e-4,1.586159 -6.7e-4,3.172319 -0.001,4.758478 1.41007,0.71055 2.82014,1.421101 4.23021,2.131651 1.40741,-0.708929 2.81483,-1.417858 4.22224,-2.126787 2.9e-4,-1.588125 5.7e-4,-3.17625 8.6e-4,-4.764375 -1.40151,-0.706132 -2.80302,-1.412263 -4.20453,-2.118395 z m -0.0303,1.557189 c 1.06377,0.531871 2.12753,1.063741 3.1913,1.595612 3e-5,0.893137 7e-5,1.786274 1e-4,2.679411 -1.06009,0.530165 -2.12017,1.060331 -3.18026,1.590496 -1.05828,-0.513706 -2.11655,-1.027413 -3.17483,-1.541119 0.008,-0.907814 0.006,-1.815677 -4e-5,-2.723494 1.05458,-0.533635 2.10915,-1.067271 3.16373,-1.600906 z" /><path
       style="fill:#7456da;fill-opacity:1;fill-rule:nonzero;stroke-width:0.00814654"
       d="m 119.35674,37.002067 -0.002,0.609536 1.10159,0.452142 -1.09868,0.455005 -0.002,0.595227 1.84373,-0.744034 0.005,-0.612396 z"
       id="path7" /><path
       style="display:inline;fill:#7456da;fill-opacity:1;fill-rule:nonzero;stroke-width:0.00814654"
       d="m 117.22664,36.998685 0.002,0.609536 -1.10159,0.452142 1.09868,0.455005 0.002,0.595227 -1.84373,-0.744034 -0.005,-0.612396 z"
       id="path7-2" /><path
       style="fill:#7456da;fill-opacity:1;fill-rule:nonzero;stroke-width:0.264583"
       d="m 117.49874,39.647146 0.53082,-0.0019 1.06115,-3.440675 -0.53172,2.4e-5 z"
       id="path8" /></g></svg>
